<mxfile host="app.diagrams.net" modified="2024-01-25T09:24:49.454Z" agent="Mozilla/5.0 (Macintosh; Intel Mac OS X 10_15_7) AppleWebKit/605.1.15 (KHTML, like Gecko) Version/15.6.1 Safari/605.1.15" etag="UXGgtIYkQHOH-zf20uDI" version="23.0.1" type="device">
  <diagram name="Page-1" id="JUo9ougxY72WdlZzyDyI">
    <mxGraphModel dx="545" dy="370" grid="1" gridSize="10" guides="1" tooltips="1" connect="1" arrows="1" fold="1" page="1" pageScale="1" pageWidth="827" pageHeight="1169" math="0" shadow="0">
      <root>
        <mxCell id="0" />
        <mxCell id="1" parent="0" />
        <mxCell id="sD76GcEMaWYsVWLWiV3S-2" value="" style="endArrow=none;html=1;rounded=0;exitX=0.483;exitY=-0.05;exitDx=0;exitDy=0;exitPerimeter=0;" edge="1" parent="1" source="sD76GcEMaWYsVWLWiV3S-4">
          <mxGeometry width="50" height="50" relative="1" as="geometry">
            <mxPoint x="200" y="430" as="sourcePoint" />
            <mxPoint x="200" y="80" as="targetPoint" />
          </mxGeometry>
        </mxCell>
        <mxCell id="sD76GcEMaWYsVWLWiV3S-3" value="src/app" style="text;html=1;align=center;verticalAlign=middle;resizable=0;points=[];autosize=1;strokeColor=none;fillColor=none;" vertex="1" parent="1">
          <mxGeometry x="171" y="48" width="60" height="30" as="geometry" />
        </mxCell>
        <mxCell id="sD76GcEMaWYsVWLWiV3S-4" value="app.component.ts&lt;br&gt;ap.module.ts&lt;br&gt;..." style="text;html=1;align=center;verticalAlign=middle;resizable=0;points=[];autosize=1;strokeColor=none;fillColor=none;" vertex="1" parent="1">
          <mxGeometry x="140" y="850" width="120" height="60" as="geometry" />
        </mxCell>
        <mxCell id="sD76GcEMaWYsVWLWiV3S-5" value="" style="endArrow=none;html=1;rounded=0;" edge="1" parent="1">
          <mxGeometry width="50" height="50" relative="1" as="geometry">
            <mxPoint x="200" y="110" as="sourcePoint" />
            <mxPoint x="270" y="110" as="targetPoint" />
          </mxGeometry>
        </mxCell>
        <mxCell id="sD76GcEMaWYsVWLWiV3S-6" value="pages" style="text;html=1;align=center;verticalAlign=middle;resizable=0;points=[];autosize=1;strokeColor=none;fillColor=none;" vertex="1" parent="1">
          <mxGeometry x="210" y="88" width="60" height="30" as="geometry" />
        </mxCell>
        <mxCell id="sD76GcEMaWYsVWLWiV3S-7" value="" style="endArrow=none;html=1;rounded=0;" edge="1" parent="1">
          <mxGeometry width="50" height="50" relative="1" as="geometry">
            <mxPoint x="270" y="260" as="sourcePoint" />
            <mxPoint x="270" y="110" as="targetPoint" />
          </mxGeometry>
        </mxCell>
        <mxCell id="sD76GcEMaWYsVWLWiV3S-8" value="" style="endArrow=none;html=1;rounded=0;" edge="1" parent="1">
          <mxGeometry width="50" height="50" relative="1" as="geometry">
            <mxPoint x="270" y="116" as="sourcePoint" />
            <mxPoint x="340" y="116" as="targetPoint" />
          </mxGeometry>
        </mxCell>
        <mxCell id="sD76GcEMaWYsVWLWiV3S-9" value="" style="endArrow=none;html=1;rounded=0;" edge="1" parent="1">
          <mxGeometry width="50" height="50" relative="1" as="geometry">
            <mxPoint x="270" y="160" as="sourcePoint" />
            <mxPoint x="340" y="160" as="targetPoint" />
          </mxGeometry>
        </mxCell>
        <mxCell id="sD76GcEMaWYsVWLWiV3S-10" value="" style="endArrow=none;html=1;rounded=0;" edge="1" parent="1">
          <mxGeometry width="50" height="50" relative="1" as="geometry">
            <mxPoint x="270" y="200" as="sourcePoint" />
            <mxPoint x="340" y="200" as="targetPoint" />
          </mxGeometry>
        </mxCell>
        <mxCell id="sD76GcEMaWYsVWLWiV3S-93" style="edgeStyle=orthogonalEdgeStyle;rounded=0;orthogonalLoop=1;jettySize=auto;html=1;" edge="1" parent="1">
          <mxGeometry relative="1" as="geometry">
            <mxPoint x="471" y="115" as="targetPoint" />
            <mxPoint x="414" y="114.99999999999994" as="sourcePoint" />
          </mxGeometry>
        </mxCell>
        <mxCell id="sD76GcEMaWYsVWLWiV3S-12" value="events" style="text;html=1;align=center;verticalAlign=middle;resizable=0;points=[];autosize=1;strokeColor=none;fillColor=none;" vertex="1" parent="1">
          <mxGeometry x="343" y="100" width="60" height="30" as="geometry" />
        </mxCell>
        <mxCell id="sD76GcEMaWYsVWLWiV3S-13" value="categories" style="text;html=1;align=center;verticalAlign=middle;resizable=0;points=[];autosize=1;strokeColor=none;fillColor=none;" vertex="1" parent="1">
          <mxGeometry x="340" y="143" width="80" height="30" as="geometry" />
        </mxCell>
        <mxCell id="sD76GcEMaWYsVWLWiV3S-14" value="settings" style="text;html=1;align=center;verticalAlign=middle;resizable=0;points=[];autosize=1;strokeColor=none;fillColor=none;" vertex="1" parent="1">
          <mxGeometry x="343" y="190" width="60" height="30" as="geometry" />
        </mxCell>
        <mxCell id="sD76GcEMaWYsVWLWiV3S-15" value="" style="endArrow=none;html=1;rounded=0;" edge="1" parent="1">
          <mxGeometry width="50" height="50" relative="1" as="geometry">
            <mxPoint x="200" y="292" as="sourcePoint" />
            <mxPoint x="270" y="292" as="targetPoint" />
          </mxGeometry>
        </mxCell>
        <mxCell id="sD76GcEMaWYsVWLWiV3S-16" value="shared" style="text;html=1;align=center;verticalAlign=middle;resizable=0;points=[];autosize=1;strokeColor=none;fillColor=none;" vertex="1" parent="1">
          <mxGeometry x="210" y="270" width="60" height="30" as="geometry" />
        </mxCell>
        <mxCell id="sD76GcEMaWYsVWLWiV3S-17" value="" style="endArrow=none;html=1;rounded=0;entryX=1;entryY=0.767;entryDx=0;entryDy=0;entryPerimeter=0;" edge="1" parent="1" target="sD76GcEMaWYsVWLWiV3S-16">
          <mxGeometry width="50" height="50" relative="1" as="geometry">
            <mxPoint x="270" y="460" as="sourcePoint" />
            <mxPoint x="270" y="300" as="targetPoint" />
          </mxGeometry>
        </mxCell>
        <mxCell id="sD76GcEMaWYsVWLWiV3S-18" value="" style="endArrow=none;html=1;rounded=0;" edge="1" parent="1">
          <mxGeometry width="50" height="50" relative="1" as="geometry">
            <mxPoint x="270" y="308" as="sourcePoint" />
            <mxPoint x="340" y="308" as="targetPoint" />
          </mxGeometry>
        </mxCell>
        <mxCell id="sD76GcEMaWYsVWLWiV3S-19" value="" style="endArrow=none;html=1;rounded=0;" edge="1" parent="1">
          <mxGeometry width="50" height="50" relative="1" as="geometry">
            <mxPoint x="270" y="367" as="sourcePoint" />
            <mxPoint x="340" y="367" as="targetPoint" />
          </mxGeometry>
        </mxCell>
        <mxCell id="sD76GcEMaWYsVWLWiV3S-20" value="" style="endArrow=none;html=1;rounded=0;" edge="1" parent="1">
          <mxGeometry width="50" height="50" relative="1" as="geometry">
            <mxPoint x="270" y="409" as="sourcePoint" />
            <mxPoint x="340" y="409" as="targetPoint" />
          </mxGeometry>
        </mxCell>
        <mxCell id="sD76GcEMaWYsVWLWiV3S-28" value="" style="edgeStyle=orthogonalEdgeStyle;rounded=0;orthogonalLoop=1;jettySize=auto;html=1;" edge="1" parent="1" source="sD76GcEMaWYsVWLWiV3S-21" target="sD76GcEMaWYsVWLWiV3S-25">
          <mxGeometry relative="1" as="geometry" />
        </mxCell>
        <mxCell id="sD76GcEMaWYsVWLWiV3S-21" value="atoms" style="text;html=1;align=center;verticalAlign=middle;resizable=0;points=[];autosize=1;strokeColor=none;fillColor=none;" vertex="1" parent="1">
          <mxGeometry x="343" y="292" width="60" height="30" as="geometry" />
        </mxCell>
        <mxCell id="sD76GcEMaWYsVWLWiV3S-30" style="edgeStyle=orthogonalEdgeStyle;rounded=0;orthogonalLoop=1;jettySize=auto;html=1;" edge="1" parent="1">
          <mxGeometry relative="1" as="geometry">
            <mxPoint x="420" y="366" as="sourcePoint" />
            <mxPoint x="440" y="366" as="targetPoint" />
          </mxGeometry>
        </mxCell>
        <mxCell id="sD76GcEMaWYsVWLWiV3S-22" value="molecules" style="text;html=1;align=center;verticalAlign=middle;resizable=0;points=[];autosize=1;strokeColor=none;fillColor=none;" vertex="1" parent="1">
          <mxGeometry x="340" y="350" width="80" height="30" as="geometry" />
        </mxCell>
        <mxCell id="sD76GcEMaWYsVWLWiV3S-33" style="edgeStyle=orthogonalEdgeStyle;rounded=0;orthogonalLoop=1;jettySize=auto;html=1;" edge="1" parent="1" source="sD76GcEMaWYsVWLWiV3S-23" target="sD76GcEMaWYsVWLWiV3S-32">
          <mxGeometry relative="1" as="geometry" />
        </mxCell>
        <mxCell id="sD76GcEMaWYsVWLWiV3S-23" value="logic" style="text;html=1;align=center;verticalAlign=middle;resizable=0;points=[];autosize=1;strokeColor=none;fillColor=none;" vertex="1" parent="1">
          <mxGeometry x="342" y="396" width="50" height="30" as="geometry" />
        </mxCell>
        <mxCell id="sD76GcEMaWYsVWLWiV3S-25" value="event-tile, buttons, ...." style="text;html=1;align=center;verticalAlign=middle;resizable=0;points=[];autosize=1;strokeColor=none;fillColor=none;" vertex="1" parent="1">
          <mxGeometry x="440" y="292" width="140" height="30" as="geometry" />
        </mxCell>
        <mxCell id="sD76GcEMaWYsVWLWiV3S-29" value="header, footer, category-list, event-list, ...." style="text;html=1;align=center;verticalAlign=middle;resizable=0;points=[];autosize=1;strokeColor=none;fillColor=none;" vertex="1" parent="1">
          <mxGeometry x="440" y="350" width="240" height="30" as="geometry" />
        </mxCell>
        <mxCell id="sD76GcEMaWYsVWLWiV3S-32" value="helper functions. &amp;nbsp;: *.helper.ts" style="text;html=1;align=center;verticalAlign=middle;resizable=0;points=[];autosize=1;strokeColor=none;fillColor=none;" vertex="1" parent="1">
          <mxGeometry x="440" y="396" width="180" height="30" as="geometry" />
        </mxCell>
        <mxCell id="sD76GcEMaWYsVWLWiV3S-50" value="" style="endArrow=none;html=1;rounded=0;" edge="1" parent="1">
          <mxGeometry width="50" height="50" relative="1" as="geometry">
            <mxPoint x="200" y="502" as="sourcePoint" />
            <mxPoint x="270" y="502" as="targetPoint" />
          </mxGeometry>
        </mxCell>
        <mxCell id="sD76GcEMaWYsVWLWiV3S-51" value="services" style="text;html=1;align=center;verticalAlign=middle;resizable=0;points=[];autosize=1;strokeColor=none;fillColor=none;" vertex="1" parent="1">
          <mxGeometry x="205" y="480" width="70" height="30" as="geometry" />
        </mxCell>
        <mxCell id="sD76GcEMaWYsVWLWiV3S-52" value="" style="endArrow=none;html=1;rounded=0;" edge="1" parent="1">
          <mxGeometry width="50" height="50" relative="1" as="geometry">
            <mxPoint x="270" y="612" as="sourcePoint" />
            <mxPoint x="270" y="502" as="targetPoint" />
          </mxGeometry>
        </mxCell>
        <mxCell id="sD76GcEMaWYsVWLWiV3S-53" value="" style="endArrow=none;html=1;rounded=0;" edge="1" parent="1">
          <mxGeometry width="50" height="50" relative="1" as="geometry">
            <mxPoint x="270" y="518" as="sourcePoint" />
            <mxPoint x="340" y="518" as="targetPoint" />
          </mxGeometry>
        </mxCell>
        <mxCell id="sD76GcEMaWYsVWLWiV3S-54" value="" style="endArrow=none;html=1;rounded=0;" edge="1" parent="1">
          <mxGeometry width="50" height="50" relative="1" as="geometry">
            <mxPoint x="270" y="556" as="sourcePoint" />
            <mxPoint x="340" y="556" as="targetPoint" />
          </mxGeometry>
        </mxCell>
        <mxCell id="sD76GcEMaWYsVWLWiV3S-55" value="" style="endArrow=none;html=1;rounded=0;" edge="1" parent="1">
          <mxGeometry width="50" height="50" relative="1" as="geometry">
            <mxPoint x="270" y="590" as="sourcePoint" />
            <mxPoint x="340" y="590" as="targetPoint" />
          </mxGeometry>
        </mxCell>
        <mxCell id="sD76GcEMaWYsVWLWiV3S-56" value="" style="edgeStyle=orthogonalEdgeStyle;rounded=0;orthogonalLoop=1;jettySize=auto;html=1;" edge="1" parent="1" source="sD76GcEMaWYsVWLWiV3S-57" target="sD76GcEMaWYsVWLWiV3S-63">
          <mxGeometry relative="1" as="geometry" />
        </mxCell>
        <mxCell id="sD76GcEMaWYsVWLWiV3S-57" value="simple" style="text;html=1;align=center;verticalAlign=middle;resizable=0;points=[];autosize=1;strokeColor=none;fillColor=none;" vertex="1" parent="1">
          <mxGeometry x="343" y="502" width="60" height="30" as="geometry" />
        </mxCell>
        <mxCell id="sD76GcEMaWYsVWLWiV3S-58" style="edgeStyle=orthogonalEdgeStyle;rounded=0;orthogonalLoop=1;jettySize=auto;html=1;" edge="1" parent="1" source="sD76GcEMaWYsVWLWiV3S-59" target="sD76GcEMaWYsVWLWiV3S-64">
          <mxGeometry relative="1" as="geometry" />
        </mxCell>
        <mxCell id="sD76GcEMaWYsVWLWiV3S-59" value="complex" style="text;html=1;align=center;verticalAlign=middle;resizable=0;points=[];autosize=1;strokeColor=none;fillColor=none;" vertex="1" parent="1">
          <mxGeometry x="340" y="540" width="70" height="30" as="geometry" />
        </mxCell>
        <mxCell id="sD76GcEMaWYsVWLWiV3S-60" style="edgeStyle=orthogonalEdgeStyle;rounded=0;orthogonalLoop=1;jettySize=auto;html=1;" edge="1" parent="1" source="sD76GcEMaWYsVWLWiV3S-61" target="sD76GcEMaWYsVWLWiV3S-65">
          <mxGeometry relative="1" as="geometry" />
        </mxCell>
        <mxCell id="sD76GcEMaWYsVWLWiV3S-61" value="core" style="text;html=1;align=center;verticalAlign=middle;resizable=0;points=[];autosize=1;strokeColor=none;fillColor=none;" vertex="1" parent="1">
          <mxGeometry x="342" y="577" width="50" height="30" as="geometry" />
        </mxCell>
        <mxCell id="sD76GcEMaWYsVWLWiV3S-62" value="services.module.ts" style="text;html=1;align=center;verticalAlign=middle;resizable=0;points=[];autosize=1;strokeColor=none;fillColor=none;" vertex="1" parent="1">
          <mxGeometry x="215" y="625" width="120" height="30" as="geometry" />
        </mxCell>
        <mxCell id="sD76GcEMaWYsVWLWiV3S-63" value="simple: getEvents() ..." style="text;html=1;align=center;verticalAlign=middle;resizable=0;points=[];autosize=1;strokeColor=none;fillColor=none;" vertex="1" parent="1">
          <mxGeometry x="440" y="502" width="140" height="30" as="geometry" />
        </mxCell>
        <mxCell id="sD76GcEMaWYsVWLWiV3S-64" value="complex combined simple services" style="text;html=1;align=center;verticalAlign=middle;resizable=0;points=[];autosize=1;strokeColor=none;fillColor=none;" vertex="1" parent="1">
          <mxGeometry x="440" y="540" width="210" height="30" as="geometry" />
        </mxCell>
        <mxCell id="sD76GcEMaWYsVWLWiV3S-65" value="core services: web, cookie, session storage" style="text;html=1;align=center;verticalAlign=middle;resizable=0;points=[];autosize=1;strokeColor=none;fillColor=none;" vertex="1" parent="1">
          <mxGeometry x="440" y="577" width="250" height="30" as="geometry" />
        </mxCell>
        <mxCell id="sD76GcEMaWYsVWLWiV3S-66" value="" style="endArrow=none;html=1;rounded=0;" edge="1" parent="1">
          <mxGeometry width="50" height="50" relative="1" as="geometry">
            <mxPoint x="200" y="697" as="sourcePoint" />
            <mxPoint x="270" y="697" as="targetPoint" />
          </mxGeometry>
        </mxCell>
        <mxCell id="sD76GcEMaWYsVWLWiV3S-67" value="globals" style="text;html=1;align=center;verticalAlign=middle;resizable=0;points=[];autosize=1;strokeColor=none;fillColor=none;" vertex="1" parent="1">
          <mxGeometry x="210" y="675" width="60" height="30" as="geometry" />
        </mxCell>
        <mxCell id="sD76GcEMaWYsVWLWiV3S-68" value="" style="endArrow=none;html=1;rounded=0;" edge="1" parent="1">
          <mxGeometry width="50" height="50" relative="1" as="geometry">
            <mxPoint x="270" y="807" as="sourcePoint" />
            <mxPoint x="270" y="697" as="targetPoint" />
          </mxGeometry>
        </mxCell>
        <mxCell id="sD76GcEMaWYsVWLWiV3S-69" value="" style="endArrow=none;html=1;rounded=0;" edge="1" parent="1">
          <mxGeometry width="50" height="50" relative="1" as="geometry">
            <mxPoint x="270" y="713" as="sourcePoint" />
            <mxPoint x="340" y="713" as="targetPoint" />
          </mxGeometry>
        </mxCell>
        <mxCell id="sD76GcEMaWYsVWLWiV3S-70" value="" style="endArrow=none;html=1;rounded=0;" edge="1" parent="1">
          <mxGeometry width="50" height="50" relative="1" as="geometry">
            <mxPoint x="270" y="751" as="sourcePoint" />
            <mxPoint x="340" y="751" as="targetPoint" />
          </mxGeometry>
        </mxCell>
        <mxCell id="sD76GcEMaWYsVWLWiV3S-71" value="" style="endArrow=none;html=1;rounded=0;" edge="1" parent="1">
          <mxGeometry width="50" height="50" relative="1" as="geometry">
            <mxPoint x="270" y="785" as="sourcePoint" />
            <mxPoint x="340" y="785" as="targetPoint" />
          </mxGeometry>
        </mxCell>
        <mxCell id="sD76GcEMaWYsVWLWiV3S-72" value="" style="edgeStyle=orthogonalEdgeStyle;rounded=0;orthogonalLoop=1;jettySize=auto;html=1;" edge="1" parent="1" source="sD76GcEMaWYsVWLWiV3S-73" target="sD76GcEMaWYsVWLWiV3S-79">
          <mxGeometry relative="1" as="geometry" />
        </mxCell>
        <mxCell id="sD76GcEMaWYsVWLWiV3S-73" value="constants" style="text;html=1;align=center;verticalAlign=middle;resizable=0;points=[];autosize=1;strokeColor=none;fillColor=none;" vertex="1" parent="1">
          <mxGeometry x="338" y="697" width="70" height="30" as="geometry" />
        </mxCell>
        <mxCell id="sD76GcEMaWYsVWLWiV3S-74" style="edgeStyle=orthogonalEdgeStyle;rounded=0;orthogonalLoop=1;jettySize=auto;html=1;" edge="1" parent="1" source="sD76GcEMaWYsVWLWiV3S-75" target="sD76GcEMaWYsVWLWiV3S-80">
          <mxGeometry relative="1" as="geometry" />
        </mxCell>
        <mxCell id="sD76GcEMaWYsVWLWiV3S-75" value="models" style="text;html=1;align=center;verticalAlign=middle;resizable=0;points=[];autosize=1;strokeColor=none;fillColor=none;" vertex="1" parent="1">
          <mxGeometry x="338" y="736" width="60" height="30" as="geometry" />
        </mxCell>
        <mxCell id="sD76GcEMaWYsVWLWiV3S-76" style="edgeStyle=orthogonalEdgeStyle;rounded=0;orthogonalLoop=1;jettySize=auto;html=1;" edge="1" parent="1" source="sD76GcEMaWYsVWLWiV3S-77" target="sD76GcEMaWYsVWLWiV3S-81">
          <mxGeometry relative="1" as="geometry" />
        </mxCell>
        <mxCell id="sD76GcEMaWYsVWLWiV3S-77" value="types" style="text;html=1;align=center;verticalAlign=middle;resizable=0;points=[];autosize=1;strokeColor=none;fillColor=none;" vertex="1" parent="1">
          <mxGeometry x="342" y="772" width="50" height="30" as="geometry" />
        </mxCell>
        <mxCell id="sD76GcEMaWYsVWLWiV3S-79" value="constant like days[], enums ..." style="text;html=1;align=center;verticalAlign=middle;resizable=0;points=[];autosize=1;strokeColor=none;fillColor=none;" vertex="1" parent="1">
          <mxGeometry x="440" y="697" width="180" height="30" as="geometry" />
        </mxCell>
        <mxCell id="sD76GcEMaWYsVWLWiV3S-80" value="the models from database" style="text;html=1;align=center;verticalAlign=middle;resizable=0;points=[];autosize=1;strokeColor=none;fillColor=none;" vertex="1" parent="1">
          <mxGeometry x="440" y="736" width="160" height="30" as="geometry" />
        </mxCell>
        <mxCell id="sD76GcEMaWYsVWLWiV3S-81" value="all self declared types" style="text;html=1;align=center;verticalAlign=middle;resizable=0;points=[];autosize=1;strokeColor=none;fillColor=none;" vertex="1" parent="1">
          <mxGeometry x="435" y="772" width="140" height="30" as="geometry" />
        </mxCell>
        <mxCell id="sD76GcEMaWYsVWLWiV3S-82" value="" style="endArrow=none;html=1;rounded=0;" edge="1" parent="1">
          <mxGeometry width="50" height="50" relative="1" as="geometry">
            <mxPoint x="270" y="442" as="sourcePoint" />
            <mxPoint x="340" y="442" as="targetPoint" />
          </mxGeometry>
        </mxCell>
        <mxCell id="sD76GcEMaWYsVWLWiV3S-83" style="edgeStyle=orthogonalEdgeStyle;rounded=0;orthogonalLoop=1;jettySize=auto;html=1;" edge="1" parent="1" source="sD76GcEMaWYsVWLWiV3S-84" target="sD76GcEMaWYsVWLWiV3S-85">
          <mxGeometry relative="1" as="geometry" />
        </mxCell>
        <mxCell id="sD76GcEMaWYsVWLWiV3S-84" value="pipes" style="text;html=1;align=center;verticalAlign=middle;resizable=0;points=[];autosize=1;strokeColor=none;fillColor=none;" vertex="1" parent="1">
          <mxGeometry x="342" y="429" width="50" height="30" as="geometry" />
        </mxCell>
        <mxCell id="sD76GcEMaWYsVWLWiV3S-85" value="transformation pipes" style="text;html=1;align=center;verticalAlign=middle;resizable=0;points=[];autosize=1;strokeColor=none;fillColor=none;" vertex="1" parent="1">
          <mxGeometry x="440" y="429" width="130" height="30" as="geometry" />
        </mxCell>
        <mxCell id="sD76GcEMaWYsVWLWiV3S-87" value="" style="endArrow=none;html=1;rounded=0;" edge="1" parent="1">
          <mxGeometry width="50" height="50" relative="1" as="geometry">
            <mxPoint x="270" y="244.76" as="sourcePoint" />
            <mxPoint x="340" y="244.76" as="targetPoint" />
          </mxGeometry>
        </mxCell>
        <mxCell id="sD76GcEMaWYsVWLWiV3S-88" value="full-event" style="text;html=1;align=center;verticalAlign=middle;resizable=0;points=[];autosize=1;strokeColor=none;fillColor=none;" vertex="1" parent="1">
          <mxGeometry x="342" y="230" width="70" height="30" as="geometry" />
        </mxCell>
        <mxCell id="sD76GcEMaWYsVWLWiV3S-90" value="atoms.module.ts" style="text;html=1;align=center;verticalAlign=middle;resizable=0;points=[];autosize=1;strokeColor=none;fillColor=none;" vertex="1" parent="1">
          <mxGeometry x="320" y="308" width="110" height="30" as="geometry" />
        </mxCell>
        <mxCell id="sD76GcEMaWYsVWLWiV3S-91" value="molecules.module.ts" style="text;html=1;align=center;verticalAlign=middle;resizable=0;points=[];autosize=1;strokeColor=none;fillColor=none;" vertex="1" parent="1">
          <mxGeometry x="315" y="366" width="130" height="30" as="geometry" />
        </mxCell>
        <mxCell id="sD76GcEMaWYsVWLWiV3S-92" value="pipes.module.ts" style="text;html=1;align=center;verticalAlign=middle;resizable=0;points=[];autosize=1;strokeColor=none;fillColor=none;" vertex="1" parent="1">
          <mxGeometry x="313" y="445" width="110" height="30" as="geometry" />
        </mxCell>
        <mxCell id="sD76GcEMaWYsVWLWiV3S-94" value="events.module.ts&lt;br&gt;events-routing.module.ts" style="text;html=1;align=center;verticalAlign=middle;resizable=0;points=[];autosize=1;strokeColor=none;fillColor=none;" vertex="1" parent="1">
          <mxGeometry x="480" y="95" width="150" height="40" as="geometry" />
        </mxCell>
        <mxCell id="sD76GcEMaWYsVWLWiV3S-95" value="categories.module.ts&lt;br&gt;categories-routing.module.ts" style="text;html=1;align=center;verticalAlign=middle;resizable=0;points=[];autosize=1;strokeColor=none;fillColor=none;" vertex="1" parent="1">
          <mxGeometry x="470" y="138" width="170" height="40" as="geometry" />
        </mxCell>
        <mxCell id="sD76GcEMaWYsVWLWiV3S-96" style="edgeStyle=orthogonalEdgeStyle;rounded=0;orthogonalLoop=1;jettySize=auto;html=1;" edge="1" parent="1">
          <mxGeometry relative="1" as="geometry">
            <mxPoint x="471" y="160" as="targetPoint" />
            <mxPoint x="414" y="159.99999999999994" as="sourcePoint" />
          </mxGeometry>
        </mxCell>
        <mxCell id="sD76GcEMaWYsVWLWiV3S-97" style="edgeStyle=orthogonalEdgeStyle;rounded=0;orthogonalLoop=1;jettySize=auto;html=1;" edge="1" parent="1">
          <mxGeometry relative="1" as="geometry">
            <mxPoint x="469" y="204.76" as="targetPoint" />
            <mxPoint x="412" y="204.75999999999993" as="sourcePoint" />
          </mxGeometry>
        </mxCell>
        <mxCell id="sD76GcEMaWYsVWLWiV3S-98" style="edgeStyle=orthogonalEdgeStyle;rounded=0;orthogonalLoop=1;jettySize=auto;html=1;" edge="1" parent="1">
          <mxGeometry relative="1" as="geometry">
            <mxPoint x="468" y="244.76" as="targetPoint" />
            <mxPoint x="411" y="244.75999999999993" as="sourcePoint" />
          </mxGeometry>
        </mxCell>
        <mxCell id="sD76GcEMaWYsVWLWiV3S-99" value="settings.module.ts&lt;br&gt;settings-routing.module.ts" style="text;html=1;align=center;verticalAlign=middle;resizable=0;points=[];autosize=1;strokeColor=none;fillColor=none;" vertex="1" parent="1">
          <mxGeometry x="475" y="185" width="160" height="40" as="geometry" />
        </mxCell>
        <mxCell id="sD76GcEMaWYsVWLWiV3S-100" value="full-event.module.ts" style="text;html=1;align=center;verticalAlign=middle;resizable=0;points=[];autosize=1;strokeColor=none;fillColor=none;" vertex="1" parent="1">
          <mxGeometry x="490" y="230" width="130" height="30" as="geometry" />
        </mxCell>
        <mxCell id="sD76GcEMaWYsVWLWiV3S-101" value="" style="strokeWidth=2;html=1;shape=mxgraph.flowchart.annotation_2;align=left;labelPosition=right;pointerEvents=1;rotation=-180;" vertex="1" parent="1">
          <mxGeometry x="630" y="95" width="50" height="135" as="geometry" />
        </mxCell>
        <mxCell id="sD76GcEMaWYsVWLWiV3S-102" value="lazy loaded" style="text;html=1;align=center;verticalAlign=middle;resizable=0;points=[];autosize=1;strokeColor=none;fillColor=none;fontColor=#007FFF;" vertex="1" parent="1">
          <mxGeometry x="680" y="147.5" width="80" height="30" as="geometry" />
        </mxCell>
      </root>
    </mxGraphModel>
  </diagram>
</mxfile>
